<svg viewBox="0 0 750 1038" xmlns="http://www.w3.org/2000/svg"><g fill-rule="evenodd"><path d="M136 754v1l-1 1-1 2v-1h-1v-1h-1v-4l-1-2q-1-1-1-4v-3l-1-1-1-2v-1h-1v-1h-1l-1-1h-1v8l2 5q2 4 2 6v2l-1 1-1 1v2h-1v-2l-1-2v-2h-4q-3 0-6-2-4-2-6-7t0-11q0-5 2-8 1-2 6-5 6-3 12-1t9 5 3 9q0 7-2 10-2 4-2 5t0 3zm-10-22h-3l-1 1-1 1h-1v5q0 5 1 7l1 3v2h-1v1h-3l-1-1-1-1h-2v-1h-1v-1h-1v-17l4-4q3-1 8-1 6 0 9 2 3 3 3 8 0 6-1 7-2 1-4-5-3-5-5-6z" fill="#0d0f10" stroke="#0d0f10"/><path d="M125 793h-1v-2q0-2 2-4l3-3 6-2q6-4 8-3 1 0 1 4t-4 6q-3 3-9 3-6 2-6 1z" fill="#615e5a" stroke="#615e5a"/><path d="M104 689v-1h3l2 2q3 2 2 4-1 1-1 2l-8 10q-8 9-15 20-7 10-7 11l-1 1-1 1v2l-1 1-1 2v2h1v-1h1v-1l1-1 1-1v-2l1-1 1-1 10-15q10-15 16-20t8-5h5q2 1 2 2t3 3q4 2 4 3t8 6q7 4 7 5t6 6 9 7q4 3 2 8 0 6-2 9t-2 4v1h-1v1h-1v2l-1 1-1 2v1h1v1h2v-1h1v-2l1-1 1-1v-2l1-1q1-1 3-5l2-4v-3h6v1h1v1h1v2h1v1h-1v2l-5 8q-5 7-11 16l-6 8v1h-3v-1l-1-1v-1q0-1-3-2l-4-2q-3-1-3-6l-2-5v-11q0-1 2-5 2-3 2-10 0-6-3-9t-9-5-12 1q-5 3-6 5-2 3-2 8-2 6 0 11t6 7q3 2 6 2h4v2l1 2v4l1 1v9q0 8-3 11t-1 8q0 5 1 7v1h-1q-1 1-5 1-4 2-11 2-6 0-9-1l-3-1-1-1h-1v-1h-1l-7-6q-7-4-13-12t-8-16q-1-7 2-18t11-24 18-24l10-11z" fill="#6495c7" stroke="#6495c7"/><path d="M126 732h-3l-1 1-1 1h-1v5q0 5 1 7l1 3v2h-1v1h-3l-1-1-1-1h-2v-1h-1v-1h-1v-17l4-4q3-1 8-1 6 0 9 2 3 3 3 8 0 6-1 7-2 1-4-5-3-5-5-6z" fill="#8d8e8e" stroke="#8d8e8e"/><path d="M390 410h1-1v1l-4 5q-4 6-5 6l-1 1-6 9q-7 8-8 9v1h-1l-11 14q-11 14-15 20t-4 7h-1l1 2q1 3 9 8t14 9 8 4 5-4q3-3 3-4v-1h1v-1h2v-1h1v-1h2v1h1v1h-1v1l-1 1-1 1v1l-1 1q0 1-1 1t-2 2q0 2-1 3l-1 1v4h1v1h1v1h1l1 1 1 1h2l1 1h1v1l1-1h2v-1h3-1v2h-1l-1 1h-1v3l-13 20q-12 19-26 38-14 20-14 21v1h-1v1h-1v2h-1v1h-1v1l-1 1h-2v-1l1-1v-2h1v-1h1v-2h1v-1q1 0 14-20t25-38l12-18v-3h-1v-1h-2v-1h-1v-1h-2v-1h-1v-1h-1l-2-1h-2l-11 15q-11 16-11 17v1h-1v1h-1v2h-1v-1h-2v1h-1v1h-2v-2h1v-1h1v-1h1v-1h1v-1l1-1q1-1 10-14t10-16l1-4v-1h-1l-1-1q-1-1-6-3-4-2-8-3-5-1-10-5-6-4-8-5-3-1-8 6-6 6-12 13-6 8-14 18l-8 9v1h-1v1h-1v1h-1v2h-1v2h-2v-2l1-1 1-1v-1h1v-1h1v-2h1l2-3q1-2 4-5 3-2 4-4 1-3 7-9 5-5 7-9 3-4 7-9t6-8q0-3-2-7l-2-3v-3h2q2 0 4 2 2 0 4 1 3 1 10-7 6-8 10-14t22-28 20-22z" fill="#0f0f11" stroke="#0f0f11"/><path d="M173 687v2l1 1v3l2 13q2 13 2 15t0 8v6h-1v1h-4v-1h-1v-1h-1v-1h-1v-19q0-6-2 1l-1 7v2l-1 3v1h-2v-1h-1v-1h-1l-1-1-1-1-19-15-19-15v-2q1 0 1-1t2-1l2-2h1v-3h-2l-2 1-2 2q-3 2-4 2h-1l-1-1h-1v-1h-1v-1h-1v-1h-1v-1h-1v-1h1v-2h2l1-1 1-1 7-2q7-2 22-3t18 1q3 1 7 6 2 4 3 5z" fill="#c6c6c6" stroke="#c6c6c6"/><path d="M715 452q3 0 3 2 0 3-3 3-2 1-2-2-1-3 2-3z" fill="#b6b5b5" stroke="#b6b5b5"/><path d="M147 867h1v1l1 1v1l-28 42q-29 41-29 42v1h-2v1h-1v1h-1v-1h-1l1-1h1v-1l1-1v-1h-4v1h-1v1h-2v-1l1-1 1-1h1v-1q0-1 16-24 16-24 18-28 2-3 5-6 3-4 8-10t8-10l3-3h1l1-1h1v-1z" fill="#71583f" stroke="#71583f"/><path d="M162 774q4-6 6-5 3 0 2 5-2 4-6 8t-6 3-1-4 5-7z" fill="#353332" stroke="#353332"/><path d="M109 680h1v1q-1 1-1 2h1v4h1v1h2l1 1h2l1 1h1q1 0 4-2l2-2 2-1h2v3h-1l-2 2q-2 0-2 1-1 0-1 1v2q-1 2-4 2h-8q0-1 1-2 1-2-2-4l-2-2h-3v1l-10 11q-10 11-18 24t-11 24-2 18q2 8 8 16t13 12l7 6 1 1v1l1 1v1h3l1 1 1 1h-7l-1-1-1-1q-1 0-5-3t-12-12-12-17q-2-8-2-16 2-8 7-19t11-21q6-11 16-20l13-13q3-3 4-3zM90 803h1q0 1-1 1v-1z" fill="#0f1011" stroke="#0f1011"/><path d="M355 530l11-15h2l2 1h1v1h1v1h2v1h1v1h2v1h1v3l-12 18q-12 18-25 38t-14 20v1h-1v2h-1v1h-1v2l-1 1v1h-1v1l-1 1-1 1v1h-1l-14 20q-13 20-31 44-16 24-17 24v1h-1v1h-4v-1h-1v-1h-1v-1h-1v-1h-1v-1h-1v-1h-2v-1h-1v-3q0-3 21-33t49-69l27-39h1v-2h1v-1h1v-1q0-1 11-17z" fill="#013293" stroke="#013293"/><path d="M169 831v-1h2v1h1v2l-1 1-1 2v1l-1 1q0 1 1 1h1v1q0 1-2 3-3 2-10 13t-8 12l-1 1v1h-1v-1l-1-1v-1h-1v1h-1l-1 1h-1v-2l1-1 1-1v-1l1-1q1-1 5-7t4-9 4-7l4-5h1q1 0 1-1v-1l1-1h1v-1h1z" fill="#614c39" stroke="#614c39"/><path d="M711 438h5v2h1q-1 1-2 3-2 1-3 1h-2v-2h-1v-2h1v-2h1z" fill="#b3b3b3" stroke="#b3b3b3"/><path d="M225 690l5 1q4 1 12 8 8 6 10 9 2 2 1 5t-10 17q-9 12-9 13l-1 1-1 1v2h-1v1h-1l-2 1h-1v-1l1-2v-1l1-1 1-1v-2h1q0-1 6-10l5-9h1v-1h1v-1h1v-1h1v-2l1-1v-2h-2v1h-1v1l-1 1-1 1v1l-11 17q-10 16-20 31-11 14-11 15v2h-2v1l-1 1-5 8-6 8v1h-1v1h-1v2h-1v1q1 0 1 1v1h-1l-3 6q-4 5-4 6h-1v1h-1v1h-1v1h-1v2h-3v1h-1v2l-1 1-1 1v2l-1 1h-1v1l-3 5q-3 4-3 5t-1 1q-1 1-3 6-2 4-4 7t-3 4l-1 1v1l-1 1-1 1v2l-3 3q-3 4-8 10t-8 10q-3 3-5 6-2 4-18 28-16 23-16 24 0 2 2 2h2v3h1l-1 1q0 2-1 2t-23 33-26 34q-3 1-8 1-4 0-9-4-5-2-5-3h2v-2h-1v-1h-1l-1 1h-1l-1-1h1v-3h-1q-1 0-1-1t-2-1h-1q-1 0-1-1v-2l1-5 3-11q2-5 22-33 18-28 32-47 12-19 48-70 36-52 41-52 4 0 11-7 6-7 7-10t-1-5v-4q0-3 2-6 3-4 9-13 5-9 21-31l16-22h1v-1h1v-1h1zm-44 119h1v1q-1 0-1-1zM83 953h1v1q-1 0-1-1zm4 2h1v1h-1v-1z" fill="#bc8d5f" stroke="#bc8d5f"/><path d="M243 588l7-6-18 22q-18 22-18 23h-1v1h-1v2h-1v1h-1v2h-2v-1h-1v-2h1v-1h1v-1h1v-1h1v-1h1v-1l2-2q2-3 12-16 10-14 17-19z" fill="#1e1e1e" stroke="#1e1e1e"/><path d="M190 652l17-21h1l1 1-1 1-12 16q-12 16-17 21-5 6-5 8v1l-1-1h-2v-1h-1v-2h-1v-1h-2v-1h-1v-2h1l1 1h1v1h1v1h1q1 0 19-22z" fill="#191919" stroke="#191919"/><path d="M555 249v-1h5v1h1v1h1v6l-1 1-1 1-6 9q-5 8-6 8-1 1-6 8l-4 7-1 1-1 1v1l-1 1-1 1v2l-1 1-1 1-8 11q-8 12-36 52-27 40-46 68-18 28-23 35t-19 28l-15 21h-1v2h-1l-1 1h-2l-1-1h-2l-1-1-1-1h-1v-1h-1v-1h-1v-4l1-1q1-1 1-3 1-2 2-2t1-1l1-1v-1l1-1 1-1v-1h1v-2h1v-1h1v-1h1v-1q0-1 12-18t30-43 49-69q31-44 41-58l10-14h1v-1h1v-1l7-10q7-10 11-16t5-7l1-2v-1h1v-1h1v-1h1z" fill="#023292" stroke="#023292"/><path d="M170 722h-3l1-7q2-7 2-1v8z" fill="#171718" stroke="#171718"/><path d="M708 367l-1 3h-3q-4 0-3-2 0-2 3-2 4-1 4 1z" fill="#e5e5e4" stroke="#e5e5e4"/><path d="M339 549l1 1h1v1l-27 39q-28 39-49 69t-21 33v3h1v1h2v1h1v1h1v1h1v1h1v1h1v1h4v-1h1v-1q1 0 17-24 18-24 31-44l14-20h1v-1l1-1 1-1v-1h2l1-1h1v2h-2v2h-1v1h-1v2l-32 46q-32 47-32 52 0 6-4 11t-18 24-30 41q-14 21-15 22l-1 1v1h-1l-7 10q-6 11-7 11v1h-1v1h-1v1h-1v2h-1v1h-1v1-4l1-2 1-1v-2h-1v-1h-2v1h-1v1l-1 1-1 1-1 1h-1v-1l1-1 1-1v-1l1-1 1-1v-2h1v-1h2v2h5v-1h1v-1h1v-2l1-1q1-1 4-6t4-5 9-13q9-13 17-25l8-12v-1h1v-1l1-1 1-1v-2l1-2v-1h-1l-1 1h-1v1h-1v1h-1v2l-10 12q-9 12-10 13v1h-1l-5 9q-6 9-6 10v1h-1v1h-1v1l-1 1-1 1v1h-1v1h-2v-1l1-1v-1h1v-1h1v-2h1v-1h1v-1l6-10 7-10 11-15q11-15 21-31l11-17v-1l1-1 1-1v-1h1v-1h2v2l-1 1v2h-1v1h-1v1h-1v1h-1l-5 9q-6 9-6 10h-1v2l-1 1-1 1v1l-1 2v1h1l2-1h1v-1h1v-2l1-1 1-1q0-1 9-13 9-14 10-17t-1-5q-2-3-10-9-8-7-12-8l-5-1h-1v1h-1v1h-1v-2l1-1v-1h-3l2-1 1-1h3q4 0 8 2 5 0 54-68l48-68q1 0 1-1h1v-1q1 0 1-1z" fill="#0d0d0e" stroke="#0d0d0e"/><path d="M715 22l2-1h2v1l-1 2v1l-1 1-1 1v2h-1q0 1-5 8-6 8-20 29l-14 22h-1v1h-1v2h-1q0 1-1 2l-1 2v1q-1 0-11 16-12 16-19 26-7 11-22 32-14 20-20 31-7 11-10 15-4 4-7 9-2 5-3 5t-4 5l-3 4v1l-1 1-1 1v2h-1v1h-1v1h-6v-1h-1v-1h-1v-4l1-1 1-1 2-6q4-5 3-5v-1l1-1q1-1 0-1v-1q0-1 1-1h1v-1h1q1 0 1-1v-2h1l1-1 1 1q1 0 5-7 5-7 4-7h-1l1-1v-1h1l7-11q7-11 20-30 14-18 14-19h1v-1h1l1-1h1v-1h1v-1h1l-1-1h-1v-1h1l1-1h1q1-1 0-1h-1v-1h1q0-1 1-1v-1q0-1 1-1l1-1v-1q0-1 1-1h2q1 0 10-13t25-34q15-22 26-37l12-16v-1l1-1 1-1v-2h1z" fill="#053083" stroke="#053083"/><path d="M674 95q-1 1-2 0h-1l1-2q1-1 1-2h1v-2h1v-1h1l14-22q14-21 20-29 5-7 5-8h1v-2l1-1 1-1v-1l1-2v-1h-2l-2 1h-1v2l-1 1-1 1v1l-22 29q-20 29-26 38-6 8-19 26l-13 17v1h-1v1h-1v1h-1v1h-1v1h-2v-2h2v-1h1v-1h1v-1l1-1 1-1v-1h1v-1q0-1 1-1v-1h1v-1l1-1v-1h1l1-1 6-8q5-9 14-22 10-14 22-33 14-18 17-24 3-5 4-6l1-1v-1l1-2 1-1v-1h1v-1h1v-2h-1l-1 1h-1v1h-1v2h-1v1h-2v1q-1 0-31 38l-30 38v1h-1q-1 1-1 2v1h-1v1h-1v1h-1v1h-1v1h-1v1h-1v1h-1v-1l1-1v-1h1v-1h1v-1l1-1 1-1 1-2q1-2 4-4 3-3 35-44t31-43q-1-3-4-6-3-4 0-4 2 1 7 4 6 3 8 2 3-1 6 0 2 1 4 5 2 5 4 13 4 8 3 9l-4-7q-3-8-7-4t-26 35-22 31z" fill="#101012" stroke="#101012"/><path d="M718 440v-1h1l1 5q2 4 1 8-1 5-3 7t-1 11q1 8 1 13v5h-2v-1h-1v-6q-1-6-1-11-2-6-2-8-2-2-2-8-1-6-2-9l-1-3h1v-1h1v1h1v2h2q1 0 3-1 1-2 2-3h1zm-3 12q3 0 3 2 0 3-3 3-2 1-2-2-1-3 2-3z" fill="#191919" stroke="#191919"/><path d="M223 690h-1v2l-16 22q-16 22-21 31-6 9-9 13-2 3-2 6t0 4q2 2 1 5t-7 10q-7 7-11 7-5 0-41 52-36 51-48 70-14 19-32 47-20 28-22 33-2 6-3 10-1 3 0 6t2 3 1 1 1 1h1v2h1l1 1h1v1h1v2h-2l-1-1h-1v-2h-2v-1h-1v-1h-1v-1l-1-1v-2h-1v-2l-1-5 3-13q3-7 4-7 1-1 5-6 3-6 31-45 26-40 30-46 4-5 14-20 10-16 27-40l17-24v-1l1-1 1-1v-1h1v-1h1v-3h-4l-1 1-1 1h-2l-8 5q-8 5-16 7t-11 0h-9l-1-1h-1v-4h2l1-1h-2v-2h2v1h1v1l3 1q3 1 9 1 7 0 11-2 4 0 5-1h1v-1q-1-2-1-7-2-5 1-8t3-11v-9l-1-1v-2h1v-2l1-1 1-1 1 6 1 6v5l1 1 1 1v1h2v-1h1v-1h1v-1l-1-3-1-2v-9l-1-2v-2h1v1l1-2 1-1v7l2 5q0 5 3 6l4 2q3 1 3 2v1l1 1v1h3v-1l6-8q6-9 11-16l5-8v-2h1v-1h-1v-2h-1v-1h-1v-1h-6v3l-2 4q-2 4-3 5l-1 1v2l-1 1-1 1v2h-1v1h-2v-1h-1v-1l1-2 1-1v-2h1v-1h1v-1q0-1 2-4t2-9q2-5-2-8-3-2-9-7t-6-6-7-5q-8-5-8-6t-4-3q-3-2-3-3t-2-2h-5q-2 0-8 5t-16 20l-10 15-1 1-1 1v2l-1 1-1 1v1h-1v1h-1v-2l1-2 1-1v-2l1-1 1-1q0-1 7-11 7-11 15-20l8-10h8q3 0 3-2v-3h2v1l-1 1v1l19 15 19 15 1 1 1 1h1v1h1v1h2v-1l1-3v-2h3v11h1v1h1v1h1v1h4v-1h1v-14q0-2-2-15l-2-13v-3l-1-1v-1h3l1 2 1 2 2 9q2 9 2 23v13h1v1h1v-1l1-1 1-1v-1h1v-1h1v-1h1v-1q1 0 9-13 10-13 14-20l5-6v-1h1v-1q0-1 1-2h3q3-1 3 0t-1 1l-1 1zm-61 84q4-6 6-5 3 0 2 5-2 4-6 8t-6 3-1-4 5-7zm-37 19h-1v-2q0-2 2-4l3-3 6-2q6-4 8-3 1 0 1 4t-4 6q-3 3-9 3-6 2-6 1zm-33 12q0-1 2-1h2l1 1 1 1h-3q-3 0-3-1z" fill="#0d0d0d" stroke="#0d0d0d"/><path d="M717 435h1v2l1 1v1h-1v1h-2v-2h-6v2h-1v1h-1v1h-1v-1l1-1 1-4q1-3 0-7-2-3-3-4-2-1-2-4-1-3-6-5-6-2-10-9t-3-13q1-7 4-12t5-6q2-2 2-8 0-5 3-6 2-1 1-22 0-22 1-28t2-9q0-3 1-3t-1 8q-1 9 0 28 1 18 3 20 1 2 4 5 2 2 3 5t6 5 8 6 3 10q2 6-1 15-2 8-7 10t-6 6q0 5-2 6-1 0 0 4 0 5 2 6 1 0 1 1zm-9-68l-1 3h-3q-4 0-3-2 0-2 3-2 4-1 4 1zm-17 22l1-4v-1h1v-1h1v-1l3-2 9-4q7-2 10-1t6 3q3 4 4 7 0 4-2 4-1 1-17 3t-16-3zm28 8l2-1h2q2 0 2 4-1 3-6 6-6 4-14 4t-10-4l-3-4v-2l12-1q13-1 15-2z" fill="#141110" stroke="#141110"/><path d="M538 294h1l-75 111-76 111v1l-1 1-1 1v1h-1v1h-1v1h-1v-4h-2v-1h1l1-1h1v-2h1l15-21q14-21 19-28t23-35q19-28 46-68 28-40 36-52l8-11 1-1 1-1v1h1v-1h1v-1l1-1q0-1 1-1zM386 515l1 1h-1q-1-1 0-1z" fill="#0e0f13" stroke="#0e0f13"/><path d="M223 754l1-1h1v1l-1 2v2l-1 1-1 1v1h-1v1l-8 12q-8 12-15 23-8 11-8 12l1 1-1 1v1h-2q-2 0-5 5t-4 6l-1 1v2h-1v1h-1v1h-5v-2h1v-2h1v-1h1v-1h1v-1h1q0-1 4-6l3-6h1v-1l1-1 1-1v-1h1v-1h1v-1q0-1 5-9l4-8h1v-1l1-1h1v-1q1-1 10-13l10-12v-2h1v-1h1v-1h1z" fill="#a8825c" stroke="#a8825c"/><path d="M583 173h1v1l-1 1-1 1q0 1-1 1v1q-1 0-10 12-10 12-19 25-10 13-9 15l1 2h1v1h1v2h1v1h1l1 1 1 1h1l1 1 1 1h5l4-7 4-7h1l1-1v-1h1v-1q1 0 1-1v-1h1v-1l1-1v-1h1l1-1 4-6q4-6 5-7h1v-2h1q1 0 1 1t-6 9q-6 7-12 16l-6 10-1 1-1 1v4h1v1h1v1h6v-1h1v1h1v-1h1v-1h2v1l-1 1v1h-1v1h-1v1l-1 1q-1 1-6 10-6 8-14 20l-8 12h-1v2h-2v1l-1 1h-1v1h-1v1h-1v-3l1-1 1-1v-1l1-1 1-1 4-7q5-7 6-8 1 0 6-8l6-9 1-1 1-1v-6h-1v-1h-1v-1h-5v1h-1v1h-1v1h-1v1l-1 2q-1 1-5 7t-11 16l-7 10v1h-1v1h-2l-1 1h-1l-1 1h-1v-2h1l1-1h1v-2l1-1 1-1 6-9q6-9 12-17 6-7 6-8v-1l1-1 1-1v-4h-1v-1h-2v-1h-1v-1h-4q-5 0-6-1 0-1-2-1-3 0-25 26-21 26-33 40-11 14-16 20-5 7-6 7-1 1-9 11l-8 10h-1v2h-1l-1 1v1h-1l-1 1v1h-1v-2l1-1v-1h1v-1h1v-1h1v-1h1v-1l24-30q24-30 46-58 22-27 21-29-1-3-2-4t-2-3v-2h8q7 1 28-25 21-25 22-26z" fill="#111113" stroke="#111113"/><path d="M671 96v-1h1q1 1 2 0v1q0 1-19 28t-31 45-20 29l-18 27-10 15h-1v1h-1v2h-1v1h-1v1l-1 1h-2v-2h1v-2l1-1 1-1v-1l3-4q3-5 4-5t3-5q3-5 7-9 3-4 10-15 6-11 20-31 15-21 22-32 7-10 19-26 10-16 11-16z" fill="#0e0f12" stroke="#0e0f12"/><path d="M719 397l2-1h2q2 0 2 4-1 3-6 6-6 4-14 4t-10-4l-3-4v-2l12-1q13-1 15-2z" fill="#f20605" stroke="#f20605"/><path d="M691 389l1-4v-1h1v-1h1v-1l3-2 9-4q7-2 10-1t6 3q3 4 4 7 0 4-2 4-1 1-17 3t-16-3z" fill="#f5f5f5" stroke="#f5f5f5"/><path d="M124 741v-4h1l1 1h1v1h1v1l1 2 1 1v3q0 3 1 4l1 2v4h1v3l1 2v9l1 2 1 3v1h-1v1h-1v1h-2v-1l-1-1-1-1v-5l-1-6-1-6v-2q0-2-2-6l-2-5v-4z" fill="#bababa" stroke="#bababa"/><path d="M715 493v-6h1q1 1 2 1v24h-1v1h-1v1h-3l-1 1-1 1h-3l-2-1-2-1h-2v-1h-1q0-1-2-5l-3-4v-7l1-1v-2h2l1 7q1 7 2 7v1h1v1h1v1h1v1h7v-1h1v-1h1v-1h1v-1h1v-4q0-5-1-11z" fill="#19191a" stroke="#19191a"/><path d="M523 290h1l1-1h1l-10 14q-10 14-41 58-31 43-49 69t-30 43-12 18v1h-1v1h-1v1h-1v1h-1v-1h-2v2h-2v-2h1v-1h1v-1h1v-1h1v-1q0-1 50-70 48-70 70-100l21-29q1 0 1-1h1z" fill="#0d0e12" stroke="#0d0e12"/><path d="M164 671h2v1h1l1 1v1h1v1h1v2h1v1h2l1 1 1 3q1 2 1 4v2h-3v-1q-1-1-3-5-4-5-7-6-3-2-18-1t-22 3l-7 2-1 1-1 1h-2v2h-1v1h1v1h1v1h1v1h1v1h-1l-1-1h-2v-1h-1v-4l-1-1v-1h1v-1l6-3q7-3 14-5t20-2q12 0 14 1z" fill="#171717" stroke="#171717"/></g></svg>