<svg xmlns="http://www.w3.org/2000/svg" overflow="visible" viewBox="0 0 246.721 224.356"><path d="M50.401 202.94l.481-.061c-.174.01-.337.02-.481.06z" fill="none"/><path d="M134.88 28.222c9.162 1.299 21.956-2.336 30.721 1.92-4.116-6.297-8.751-16.2-15.841-21.12-.125-.747-1.053-.333-1.439 0 4.235 6.166 11.286 12.072 13.439 18.72-10.62-3.263-20.812-2.023-30.239-1.44.54 1.689 2.14 1.746 3.36 1.92zM115.2 9.501c5.314 3.486 10.802 6.798 15.84 10.56-2.62-5.858-9.84-9.673-15.84-10.56zm48.96 1.92c1.422 4.053 4.79 10.224 8.16 13.92-1.61-5.752-4.25-10.469-8.16-13.92zm-58.08 3.36c5.942.618 8.101 5.02 12.96 6.72-1.654-3.979-7.507-7.829-13.44-9.12-.4 1.357.68 1.244.48 2.4zm-11.038 3.841c5.129.951 8.251 3.908 12.96 5.28-2.21-3.352-9.68-9.076-12.958-5.28z" fill="#fff"/><path d="M54.242 26.781c3.902-.308 8.378.888 9.12-2.4-7.934-.804-15.946 1.825-21.6 3.36-8.073 2.192-17.648 4.768-21.6 10.56 6.874-2.137 14.043-5.468 19.2-7.68 4.523-1.94 9.755-3.435 14.88-3.84z"/><path d="M123.36 28.222c-7.312-3.941-21.107.509-26.4 4.8 2.152.232 2.144-1.697 3.84-1.92 6.18 1.528 15.23-3.957 22.56-2.88zm12.48 2.4c-3.79 1.295-3.367 8.942 1.44 7.2-2.15-2.169-1.28-4.837-1.44-7.2zm5.76 0c-2.698.341-3.707 2.373-3.359 5.76 2.618 1.209 3.546 3.034 7.2 1.92.109-2.931.959-5.12 1.92-7.2-2.711.489-3.106 3.293-5.761 3.84-.41-1.914.72-3.547 0-4.32zm-12.48 1.44c-1.163 1.35-1.142 6.336 2.4 5.76-.88-1.835-.7-4.735-2.4-5.76zm19.68 7.679c1.502-.098 3.524.324 4.32-.48-.9-3.058-1.711-4.005-.479-7.2-3.43.336-6.28 4.423-3.84 7.68zm-22.56-3.84c-2.444.204-1.086-3.394-3.36-3.36-1.504.095-.401 2.799-1.44 3.36-1.692-.387-1.23-2.93-3.36-2.88-.281.999-1.009 1.551-1.44 2.4.42 3.16 8.98 4.652 9.6.48zm-12.96-2.88c-.877 1.326-1.816 4.751.48 5.28 1.121-.862 1.353-4.417.96-5.28h-1.44zm-8.16.96c.214 2.693-1.634 5.757 1.44 6.24.327-1.913 1.046-3.434.96-5.76-.56-.402-1.28-.633-2.4-.48z" fill="#fff"/><path d="M24.961 46.461c7.175-1.807 14.388-4.383 20.64-6.24 4.782-1.42 10.681-1.415 13.44-5.76h-2.4c-16.45 6.75-36.972 9.428-51.84 17.76-.775 2.114-4.453 3.854-2.4 7.2 4.979-6.264 12.711-10.479 22.56-12.96z"/><path d="M100.32 35.901h-1.44c-1.801 1.056.823 4.241-1.44 5.28-1.77-.79-3.029-2.091-3.36-4.32-6.153 4.213 2.767 8.52 8.16 5.28.82-1.821-2.748-2.865-1.92-6.24zm58.08 5.761c1.917-1.744-.269-7.106-2.88-4.32-.58 2.985.95 3.849 2.88 4.32zm-68.158 3.359c-.795-2.085-.808-4.952-2.4-6.24-1.94 2.039-1.43 6.242 2.4 6.24zm-7.68-3.359c-2.53 1.833-1.063 7.362 2.4 5.76-.149-2.572-.572-4.869-2.4-5.76zm-6.24 3.359c-.207 3.912 1.399 5.073 4.8 4.32-1.024-2.016-2.206-3.874-4.8-4.32zm77.278.96c.649.151.917.683 1.921.48v-1.44c-1.09-.134-1.8.116-1.92.96zm17.28 9.121c-3.124.396-3.292 3.748-6.72 3.84-1.028-1.094 1.748-3.745-.48-4.8-2.486.873-1.32 5.399-4.319 5.76-.991 2.923 2.39 7.237-1.44 7.2-1.889-6.263 3.961-10.472 2.4-16.32-4.232.248-4.294 4.667-8.16 5.28-.506-2.426 1.094-2.746.96-4.8-3.718-.357-2.081 4.64-5.28 4.8-.025-2.745 1.86-3.58 1.44-6.72h-3.84c-1.256 1.145-1.309 3.492-3.36 3.84-1.4-1.229.625-3.386-.48-4.32-3.383-.023-3.544 3.176-5.279 4.8-1.776-.304-1.465-2.696-1.44-4.8-4.271-.379-1.88 4.219-3.84 5.28-1.231-.688-2.548-1.292-2.88-2.88.712-.408 1.032-1.208.96-2.4-2.345-.765-4.29 2.648-3.84 6.24-.981-1.025-1.899.135-2.88.48.724 2.156 1.065 4.694 3.84 4.8 1.876-.524 1.31-3.49 3.84-3.36-.291 1.056-1.206 3.577.48 3.84 1.33-2.061 4.92-6.335 7.2-4.32-1.022 1.697-3.641 1.799-4.319 3.84-.125 1.565.569 2.31 1.92 2.4 1.454-1.436 3.828-4.478 6.72-2.88-1.01 1.87-4.374 1.386-3.84 4.8 2.807.411 4.705-4.132 6.72-1.44-.023 2.216-2.902 1.577-2.399 4.32 1.676.364 3.624-1.453 4.8 0 .357 1.478-1.317.922-.96 2.4 1.204.556 1.607 1.913 3.359 1.92 2.143-1.537 3.797-3.563 6.721-4.32.467 1.966-1.188 3.075 0 4.32 3.176.446 4.081-3.904 6.239-2.88-.318 1.289-2.107 2.551-.96 3.84 2.715 1.091 2.756-2.972 3.841-1.92-.894 4.227-4.266 5.976-5.761 9.6 1.967 1.841 2.141.982 3.84-.48 3.185-2.74 1.355-2.902 3.36-7.2 1.213-2.601 2.808-2.565 2.88-4.32.079-1.91-1.438-3.361-1.439-4.8 0-3.097 2.69-6.403 2.4-8.64zm-22.08 8.639c-.079-1.999-.166-4.006.96-4.8 1.39.782 1.65 5.287-.96 4.8zm5.76-.479c-2.18-.216-.103-3.309 0-4.32h1.92c-.43 1.651-1.17 2.992-1.92 4.32zm10.08 1.92c-2.642-.814-.483-3.94.479-5.28.775-.135.826.454 1.44.48.05 2.287-1.6 2.879-1.92 4.8zM72.961 48.861c.457 1.784 1.114 3.366 3.36 3.36-.167-2.072-1.287-3.192-3.36-3.36zm112.319.96c-1.256-.135-2.064.175-1.92 1.44 1.26.136 2.07-.175 1.92-1.44zM69.122 52.222c.196 1.156-.877 1.043-.48 2.4.914.206 1.206 1.034 2.4.96 1.102-1.343.264-3.819-1.92-3.36zm135.838 2.4c.654-2.415-1.933-1.587-2.88-2.4.3 1.46 1.07 2.453 2.88 2.4zm-140.639.48c-1.707 1.86 1.02 4.587 2.88 2.88-.023-1.897-.983-2.857-2.88-2.88zM208.8 57.981c.397-1.356-.676-1.244-.479-2.4h-1.92c-.11 1.71.69 2.51 2.4 2.4zm-147.359-.48c-.631 1.554-.663 4.615 1.92 4.32 1.117-1.586.008-4.264-1.92-4.32z" fill="#fff"/><path d="M170.88 64.702c1.84-1.681 3.855-3.185 6.721-3.84-.87-5.499-8.95.338-6.72 3.84z" fill="#fff"/><path d="M149.76 58.941c-1.126.794-1.039 2.801-.96 4.8 2.61.487 2.35-4.018.96-4.8zm4.8 4.321c.752-1.328 1.49-2.669 1.92-4.32h-1.92c-.1 1.011-2.18 4.103 0 4.32z"/><path d="M230.88 85.821c1.024.576 2.614.586 2.88 1.92.004 2.876 1.504 4.256 2.881 5.76 2.438-4.831-1.765-9.096-4.32-12.96-5.568-8.42-13.29-15.625-19.68-21.12-.837-.036-1.493.107-1.921.48v1.44c8.27 6.611 15.4 14.366 20.16 24.48z" fill="#fff"/><path d="M165.12 59.901c-.963 1.34-3.121 4.466-.479 5.28.319-1.92 1.967-2.513 1.92-4.8-.61-.026-.66-.615-1.44-.48zm-65.759.48c-1.752 1.542-1.807 6.017.96 6.72-1.673-2.701 1.83-5.814-.959-6.72zm7.199 4.801c-2.229-.011-.769-3.711-1.92-4.8-2.08 1.182-.47 6.792 1.92 4.8z"/><path d="M58.082 61.341c-.724.964-.117 3.671 1.44 3.84 1.853-.564.875-4.486-1.44-3.84zm120.478 23.52c1.206-7.593 9.062-11.333 15.359-14.88-2.658-1.709-6.737 1.468-8.16.96.517-1.244 1.736-1.785 1.92-3.36-1.928.167-5.433 1.265-6.239.96 2.282-1.94-1.658-1.59-.48-3.36.943-.144.952.648 1.44.96-.249-3.929 4.231-3.128 7.68-3.36-5.105-4.275-11.827 1.729-15.84 4.32-2.844 4.979-2.926 11.613-2.88 17.76 3.402 4.917 3.84 12.8 11.04 13.92-.78-5.503-4.61-9.079-3.84-13.92z" fill="#fff"/><path d="M96.481 70.461c-.618-3.208-4.24-4.062-1.92-7.68h-1.92c.347 1.467-.491 1.75-.48 2.88 1.433 1.609 2.099 3.982 4.32 4.8zm25.439-6.239c-.744 3.096-2.659 5.021-4.32 7.2 1.219 5.173 6.6 6.553 6.72 11.52 1.905 1.111 3.196 3.264 6.24 1.92-.777-2.263-3.457-2.624-3.36-5.76 7.405 1.394 13.876 3.724 20.64 5.76-5.746-4.333-14.093-6.067-23.04-7.2-.803-.798-1.943-1.257-1.92-2.88 7.071.289 11.938 2.783 17.76 4.32-4.12-5.16-14.673-3.887-19.2-8.64 5.68-.681 11.56 2.492 16.32 4.32-1.695-5.57-13.062-3.807-13.92-8.64 3.847.153 6.293 1.707 9.12 2.88-2.23-3.052-6.09-4.472-11.04-4.8z"/><path d="M52.321 66.622c-.742 1.508-.307 2.678.48 3.84.908.107 1.059-.541 1.92-.48.19-2.11-.589-3.251-2.4-3.36z" fill="#fff"/><path d="M114.72 67.102c-.614-.026-.665-.615-1.44-.48-1.324 2.082-3.251 6.848 0 8.16.081-.559.759-.521 1.44-.48-.07-1.586-2.74-4.881 0-7.2zm-27.839.48c-1.152 2.082.806 7.294 2.88 9.12-1.103-2.655.323-4.074.96-6.24-1.776-.463-2.7-1.781-3.84-2.88zm23.519 8.159c.114-1.662-.665-5.429-1.92-7.2-1.441 1.119-1.093 4.026-1.44 6.24 1.24.705 1.79 1.77 3.36.96z"/><path d="M47.042 69.021c.122 1.639 1.214 2.306.96 4.32.803.848 1.608-.426 3.36 0-1.487-1.393-1.959-3.801-4.32-4.32z" fill="#fff"/><path d="M106.56 78.142c-1.245-2.608-1.901-5.197-.48-8.16-3.012-1.579-3.037 3.572-3.36 6.24 1.7.223 1.69 2.152 3.84 1.92z"/><path d="M152.16 70.941c-1.094 1.334-.105 3.66 1.439 3.84 1.888-.461.363-2.795 0-3.84h-1.44zm60.48.48c-5.023 4.795 3.545 13.401 9.6 10.08-.02-6.537-3.07-10.051-9.6-10.08zm6.24 8.161c-3.732-.107-3.143-4.537-5.279-6.24 2.91-.98 6.89 2.753 5.28 6.24z" fill="#fff"/><path d="M93.122 79.582c1.113-.153 1.843.077 2.4.48-2.258-2.242-.715-6.025-2.4-8.16-2.449 1.903-.748 5.103 0 7.68zm6.719-7.681c-1.45 1.65-2.66 7.208 1.44 6.72-1.673-2.096.58-5.469-1.439-6.72zm-14.4 7.681c.686-1.547-1.91-3.369-.96-6.72-4.312.238-1.772 6.537.96 6.72z"/><path d="M207.36 97.821c7.122-.697 19.31-3.09 19.68-8.64-4.583-3.251-12.656-3.927-18.24-1.92-5.442-2.248-11.44-1.562-16.8-1.92 1.649-6.03 14.454-.906 14.88-8.16-5.585-7.288-19.699-3.923-23.04 2.88.519 3.079-1.426 3.694-1.92 5.76 1.203 4.562 1.158 15.23 6.721 15.36 1.64.038 2.54-2.163 4.319-2.88 3.38-1.358 8.61.088 14.4-.479z" fill="#fff"/><path d="M213.6 73.341c2.137 1.704 1.547 6.133 5.279 6.24 1.61-3.486-2.37-7.219-5.28-6.24z"/><path d="M159.84 75.262c-1.811-1.342-4.063.194-3.359 2.88.372.107.946.013.96.48 2.13.211 2.61-1.228 2.4-3.36z" fill="#fff"/><path d="M82.082 82.461c-.642-1.918-2.285-2.835-2.88-4.8-2.321 1.693.836 6.088 2.88 4.8z"/><path d="M22.562 78.622c-5.07 5.97-12.068 10.012-14.88 18.24 6.826-5.013 11.619-12.061 17.76-17.76-.568-.553-1.697-.544-2.88-.48z" fill="#fff"/><path d="M72.481 81.021c.315 1.765 1.77 2.391 2.88 3.36-1.491-1.939-.377-3.312 0-5.76-1.451.309-2.77.751-2.88 2.4z"/><path d="M225.6 84.381c.062-1.183.072-2.312-.48-2.88-1.665-.385-1.845.715-3.36.48-.28 2.362 1.58 2.582 3.84 2.4z" fill="#fff"/><path d="M69.602 84.381c-.393 1.833 1.021 1.858 1.92 2.4.124-1.565-.57-2.31-1.92-2.4zm-12.48 1.44c-1.171 2.604 2.706 3.903 5.28 4.32-1.193-2.007-3.614-2.786-5.28-4.32zm32.64 9.6c-.762-2.886-.357-5.245.48-7.68-3.715-.395-4.076 7.642-.48 7.68zm5.28-7.679c-1.047 1.513-2.099 3.021-1.92 5.76.908-.107 1.059.541 1.92.48-1.546-2.125 2.458-5.028 0-6.24zm5.278 5.279c.899-1.82 2.289-3.151 2.88-5.28-1.63.578-5.492 3.606-2.88 5.28zm-40.799.96c-1.028-1.852-3.023-2.737-4.8-3.84-.297 2.99 2.926 4.572 4.8 3.84zm24.48 2.4c-.737-1.823.488-5.608-1.92-5.76-1.902 1.634-.371 5.429 1.92 5.76zm21.599-3.36c1.265.145 1.575-.665 1.44-1.92-1.26-.144-1.57.665-1.44 1.92zm-49.918 4.32c-.682-2.518-3.486-2.914-5.28-4.32-.088 3.288 1.887 4.513 5.28 4.32zm-10.56 2.879v2.4c1.468.932 2.831 1.969 4.8 2.4-.138-3.06-3.348-3.05-4.8-4.8z"/><path d="M113.76 119.9c8.8 6.714 12.608-5.535 18.72-10.56 3.319-2.729 7.514-3.495 7.199-7.2-13.62.94-20.39 8.73-25.92 17.76z" fill="#fff"/><path d="M45.602 108.86c-.894-1.985-3.847-1.913-5.28-3.36-.359 3.24 2.136 3.62 5.28 3.36z"/><path d="M202.56 115.1c-1.342 1.812.193 4.063 2.88 3.36.29-2.36-.46-3.69-2.88-3.36z" fill="#fff"/><path d="M204.48 129.5c-1.361-.895-2.302-4.72-3.84-3.841.86 1.4 2.1 4.92 3.84 3.84zm-125.278-2.88c-4.549 5.28-7.585 21.986-2.4 26.881-.171-9.737.438-19.097 3.84-26.881h-1.44zm7.679 37.44c3.844-1.173 5.797-9.503 3.36-12.479-1.78 3.5-2.879 7.68-3.36 12.48z"/><path d="M6.242 171.74c5.544.862 6.727-6.682 9.6-10.08-4.032.65-6.692 6.72-9.6 10.08z" fill="#fff"/><path d="M86.881 165.02c-.232.567-.512 1.088-.96 1.44.605 3.297-1.086 6.411 0 8.64-1.255 2.223-2.464 9.733.96 11.04-.726-4.541 1.492-15.333 1.44-20.64-.613-.02-.664-.61-1.44-.48zm-69.119 7.68c-2.941 2.245-12.124 17.241-8.218 20.146-.099-5.48 9.585-16.57 8.218-20.15zm1.44 17.28c3.036-3.204 2.651-9.829 4.8-13.92-4.892 1.03-5.585 8.81-4.8 13.92zm-.96-12.48c-1.825 2.814-3.409 5.87-4.32 9.6-2.69 23.743 1.551 1.009 2.4 1.44.025-4.455 1.837-7.124 2.88-10.561-.106-.37-.403-.56-.96-.48zm9.119 4.8c-.553 2.097-1.761 5.469.48 6.72.975-.45 1.097-5.91-.48-6.72z"/><path d="M106.56 40.222c.327-1.913 1.046-3.434.96-5.76-.557-.403-1.287-.633-2.4-.48.22 2.692-1.63 5.757 1.44 6.24zm7.2-1.921c1.121-.862 1.353-4.417.96-5.28h-1.44c-.88 1.327-1.82 4.751.48 5.28zm12.48-2.4c-2.444.204-1.086-3.394-3.36-3.36-1.504.095-.401 2.799-1.44 3.36-1.692-.387-1.23-2.93-3.36-2.88-.281.999-1.009 1.551-1.44 2.4.42 3.16 8.98 4.652 9.6.48zm27.36 38.88c1.888-.461.363-2.795 0-3.84h-1.439c-1.09 1.334-.1 3.66 1.44 3.84zm-30.24-46.559c-7.312-3.941-21.107.509-26.4 4.8 2.152.232 2.144-1.697 3.84-1.92 6.18 1.528 15.23-3.957 22.56-2.88zm40.8-16.801c1.422 4.053 4.79 10.224 8.16 13.92-1.61-5.752-4.25-10.469-8.16-13.92zm-10.56 34.56c.649.151.917.683 1.921.48v-1.44c-1.09-.134-1.8.116-1.92.96zm4.8-4.319c1.917-1.744-.269-7.106-2.88-4.32-.58 2.985.95 3.849 2.88 4.32zm-1.92 36.48c.372.107.946.013.96.48 2.132.211 2.612-1.228 2.399-3.36-1.81-1.342-4.06.194-3.36 2.88zm-20.64-47.52c-3.79 1.295-3.367 8.942 1.44 7.2-2.15-2.169-1.28-4.837-1.44-7.2zm12.96 9.119c1.502-.098 3.524.324 4.32-.48-.9-3.058-1.711-4.005-.479-7.2-3.43.336-6.28 4.423-3.84 7.68zm-7.2-9.119c-2.698.341-3.707 2.373-3.359 5.76 2.618 1.209 3.546 3.034 7.2 1.92.109-2.931.959-5.12 1.92-7.2-2.711.489-3.106 3.293-5.761 3.84-.41-1.914.72-3.547 0-4.32zm84 53.759c.062-1.183.072-2.312-.48-2.88-1.665-.385-1.845.715-3.36.48-.28 2.362 1.58 2.582 3.84 2.4zm5.28 1.44c1.024.576 2.614.586 2.88 1.92.004 2.876 1.504 4.256 2.881 5.76 2.438-4.831-1.765-9.096-4.32-12.96-5.568-8.42-13.29-15.625-19.68-21.12-.837-.036-1.493.107-1.921.48v1.44c8.27 6.611 15.4 14.366 20.16 24.48zM22.562 78.622c-5.07 5.97-12.068 10.012-14.88 18.24 6.826-5.013 11.619-12.061 17.76-17.76-.568-.553-1.697-.544-2.88-.48z" fill="none"/><path d="M212.64 71.421c-5.023 4.795 3.545 13.401 9.6 10.08-.02-6.537-3.07-10.051-9.6-10.08zm-41.28 13.44c3.402 4.917 3.84 12.8 11.04 13.92-.776-5.503-4.609-9.08-3.84-13.92 1.206-7.593 9.062-11.333 15.359-14.88-2.658-1.709-6.737 1.468-8.16.96.517-1.244 1.736-1.785 1.92-3.36-1.928.167-5.433 1.265-6.239.96 2.282-1.94-1.658-1.59-.48-3.36.943-.144.952.648 1.44.96-.249-3.929 4.231-3.128 7.68-3.36-5.105-4.275-11.827 1.729-15.84 4.32-2.84 4.98-2.92 11.614-2.88 17.76zm-.48-29.759c-3.124.396-3.292 3.748-6.72 3.84-1.028-1.094 1.748-3.745-.48-4.8-2.486.873-1.32 5.399-4.319 5.76-.991 2.923 2.39 7.237-1.44 7.2-1.889-6.263 3.961-10.472 2.4-16.32-4.232.248-4.294 4.667-8.16 5.28-.506-2.426 1.094-2.746.96-4.8-3.718-.357-2.081 4.64-5.28 4.8-.025-2.745 1.86-3.58 1.44-6.72h-3.84c-1.256 1.145-1.309 3.492-3.36 3.84-1.4-1.229.625-3.386-.48-4.32-3.383-.023-3.544 3.176-5.279 4.8-1.776-.304-1.465-2.696-1.44-4.8-4.271-.379-1.88 4.219-3.84 5.28-1.231-.688-2.548-1.292-2.88-2.88.712-.408 1.032-1.208.96-2.4-2.345-.765-4.29 2.648-3.84 6.24-.981-1.025-1.899.135-2.88.48.724 2.156 1.065 4.694 3.84 4.8 1.876-.524 1.31-3.49 3.84-3.36-.291 1.056-1.206 3.577.48 3.84 1.33-2.061 4.92-6.335 7.2-4.32-1.022 1.697-3.641 1.799-4.319 3.84-.125 1.565.569 2.31 1.92 2.4 1.454-1.436 3.828-4.478 6.72-2.88-1.01 1.87-4.374 1.386-3.84 4.8 2.807.411 4.705-4.132 6.72-1.44-.023 2.216-2.902 1.577-2.399 4.32 1.676.364 3.624-1.453 4.8 0 .357 1.478-1.317.922-.96 2.4 1.204.556 1.607 1.913 3.359 1.92 2.143-1.537 3.797-3.563 6.721-4.32.467 1.966-1.188 3.075 0 4.32 3.176.446 4.081-3.904 6.239-2.88-.318 1.289-2.107 2.551-.96 3.84 2.715 1.091 2.756-2.972 3.841-1.92-.894 4.227-4.266 5.976-5.761 9.6 1.967 1.841 2.141.982 3.84-.48 3.185-2.74 1.355-2.902 3.36-7.2 1.213-2.601 2.808-2.565 2.88-4.32.079-1.91-1.438-3.361-1.439-4.8 0-3.097 2.69-6.403 2.4-8.64z" fill="none"/><path d="M170.88 64.702c1.84-1.681 3.855-3.185 6.721-3.84-.87-5.499-8.95.338-6.72 3.84zm37.92-6.721c.397-1.356-.676-1.244-.479-2.4h-1.92c-.11 1.71.69 2.51 2.4 2.4zm-3.84-3.359c.654-2.415-1.933-1.587-2.88-2.4.3 1.46 1.07 2.453 2.88 2.4zm-21.12 25.44c.519 3.079-1.426 3.694-1.92 5.76 1.203 4.562 1.158 15.23 6.721 15.36 1.64.038 2.54-2.163 4.319-2.88 3.374-1.359 8.612.087 14.4-.48 7.122-.697 19.31-3.09 19.68-8.64-4.583-3.251-12.656-3.927-18.24-1.92-5.442-2.248-11.44-1.562-16.8-1.92 1.649-6.03 14.454-.906 14.88-8.16-5.58-7.286-19.7-3.921-23.04 2.882zm1.44-30.241c-1.256-.135-2.064.175-1.92 1.44 1.26.136 2.07-.175 1.92-1.44zM54.722 69.981c.189-2.11-.59-3.25-2.4-3.36-.742 1.508-.307 2.678.48 3.84.907.108 1.058-.541 1.92-.48zm80.158-41.759c9.162 1.299 21.956-2.336 30.721 1.92-4.116-6.297-8.751-16.2-15.841-21.12-.125-.747-1.053-.333-1.439 0 4.235 6.166 11.286 12.072 13.439 18.72-10.62-3.263-20.812-2.023-30.239-1.44.54 1.689 2.14 1.746 3.36 1.92zM48.001 73.341c.803.848 1.608-.426 3.36 0-1.486-1.393-1.958-3.801-4.32-4.32.122 1.639 1.214 2.307.96 4.32zm15.36-11.52c1.117-1.586.007-4.264-1.92-4.32-.63 1.555-.663 4.615 1.92 4.32zm-3.84 3.361c1.854-.565.876-4.487-1.44-3.84-.724.964-.117 3.671 1.44 3.84zm7.681-7.201c-.024-1.896-.984-2.856-2.88-2.88-1.707 1.861 1.019 4.587 2.88 2.88zM202.56 115.1c-1.342 1.812.193 4.063 2.88 3.36.29-2.36-.46-3.69-2.88-3.36zm-17.28-8.16c-2.31-4.023-6.968-5.269-9.601-8.64-2.699-3.457-3.232-8.615-5.76-12.48-2.604 1.742.013 8.917 1.44 12 3.38 7.3 11.508 12.413 15.359 17.28-10.171-2.15-15.016-13.784-20.64-22.08-1.875.452-.408 2.421-.479 3.84-9.941-5.331-21.126-7.949-33.12-9.12 8.852-3.948 20.134 3.141 27.84 4.32-3.014-7.387-11.212-9.589-14.88-16.32 6.925 3.795 11.01 10.43 17.76 14.4-3.279-6.101-8.431-11.018-15.36-16.32-7.584-5.803-14.527-9.971-24.479-12.48-4.205-3.552-2.395-9.229.96-12.48-3.995-2.383-3.586 3.766-6.24 4.32-.798-.962.04-3.561-.96-4.32-3.117 1.781-1.882 5.197-2.88 8.64.437 1.823 1.929.351 3.36.48-1.561 3.439.938 6.068-1.44 7.68-1.74-.34-.662-3.499-.96-5.28-.123-.997-2.109-.131-2.4-.96.501-4.384-.09-6.326-1.44-9.6-3.755.976-1.2 5.301-3.36 7.68-.145 1.265.665 1.575 1.92 1.44-.958 2.51.188 4.209.48 6.72-3.652-.934.054-6.326-4.32-6.24 1.009-3.729-1.234-6.272-.48-9.12-2.361-.929-3.387 3.222-3.84 5.76-3.493.612-2.06-3.701-3.84-4.8-3.181.376.046 4.819-1.92 5.76-2.701-.02-2.026-3.414-4.32-3.84-2.084 1.327.351 2.932.48 4.8-1.881.88-3.632-1.983-5.28-2.88-1.704 2.21 1.851 4.843.48 6.72-2.584-.135-3.822-1.618-4.32-3.84-3.741.358-.263 4.986-1.92 7.2-2.465-.255-3.969-1.472-4.8-3.36-2.417 1.895.417 4.395.48 6.72-3.439.559-2.809-2.952-5.28-3.36-2.991 2.438 1.142 4.966.48 8.16-3.725.365-3.938-2.782-6.24-3.84-1.674 1.998.802 6.024-.48 7.68-2.861.461-3.91-.891-5.28-1.92-1.78 1.339-.452 4.35.48 5.76-2.134 1.79-3.451-1.331-4.8-1.92-2.755 1.575-.044 4.467-1.44 7.2-2.286.207-2.681-1.479-4.32-1.92-2.236 1.636.048 4.391.48 6.24-2.198-.202-3.082-1.718-5.28-1.92-.138 4.82 4.644 8.765 7.2 12.48-3.291-.39-5.248-2.112-5.28-5.76-1.826-.254-3.158-1.002-4.8-1.44-2.82 2.277 1.81 4.22.96 5.76-1.909.148-2.411-1.109-4.32-.96-1.752 1.531-.079 3.079 0 5.28-1.355-.049-2.039-1.809-3.36-.48-.705 2.625 1.225 2.616 1.92 3.84-2.744 3.913 1.606 5.484 3.36 7.68-4.576 2.357-4.256-6.485-9.12-3.84.748 4.052 3.73 5.869 6.24 8.16-4.248.568-4.284-3.076-7.68-3.36-1.801 4.601 4.715 4.826 6.72 7.2-4.163-.408-6.248-.235-8.64-1.92-.83 1.09-1.158 2.682-.96 4.8.374 2.287 2.17.169 3.36 1.439.321 2.081-2.228 1.293-3.84 1.44-.833 2.753 2.031 1.81 1.92 3.84-.745.694-2.24.641-2.88 1.44-.106 2.026 2.494 1.346 3.36 2.399-.762 2.21-3.483-.523-4.32 1.44.279 1.48 1.735 1.784 2.88 2.399-.09 1.35-1.566 1.314-1.92 2.4.991 6.456-.046 12.826-.96 18.72-6.162 3.117-11.756 8.199-15.36 15.841-.729 1.546-.825 3.616-1.44 5.279 0 0-1.899 6.601-1.899 9.793s.348 6.504 3.185 12.018c2.837 5.513 2.838 2.611 4.099.87 1.26-1.741 2.208-6.094 2.208-6.094l.946-3.192c.946-3.192 7.251-4.643 7.251-4.643s.073.041.178.106c1.803-.308 3.958-.264 5.633-.698 1.04-1.84-.458-6.218 2.4-6.24-.287 2.527.356 4.124.48 6.24.665 1.061 3.603 1.438 4.32.96-.348-4.772-2.947-7.292-3.84-11.52 5.512 2.008 3.829 11.211 8.64 13.92.08-5.523-4.104-10.935-5.76-16.32 6.652 3.7 7.132 19.916 12.96 24.48-.024.02-.045.03-.069.048l1.028.915.48-.483c.206-7.588-6.418-12.444-7.68-20.16 5.71 4.689 7.529 13.271 11.52 19.681 0 0 1.255 2.695 1.556 2.771s.844-2.291.844-2.291c2.105-6.896-6.973-13.067-8.16-18.24 5.785 4.062 8.75 10.941 12.231 17.305l.058-.013s3.767 8.815 4.37 8.891l.603.075s-.377-7.007-.603-8.514c-.007-.047-.005-.092-.007-.138-1.721-7.437-6.939-14.914-11.371-20.966h1.44c3.052 4 8.925 9.674 11.04 15.84.256.746 1.08 2.431 1.067 3.789.419 3.171 1.687 12.862 1.749 14.81.075 2.336 1.431 2.035 1.582.151s1.461-10.761.881-12.99c-2.066-8.078-7.248-18.982-13.44-25.92-3.166-3.547-7.445-5.749-10.08-10.56-2.436-4.447-6.227-9.396-7.2-14.4-3.828-19.693 6.431-33.76 18.24-41.76-.508 5.252-5.905 5.614-6.72 10.56.316 1.438 1.026-.459 1.92 0-1.571 3.55-4.632 5.608-5.76 9.601.683.96 3.122-.367 3.36-1.44 1.101.892.695 2.251 2.88 2.88-.73 1.99-1.215 4.226-.96 7.2 8.815-3.586 4.836-18.152 10.56-25.44-.369-1.809.586-2.294.48-3.84 2.494-4.546 8.154-5.926 12.48-8.64-.493-1.954-3.25-6.117.48-6.72-.534 3.734 2.291 4.109 3.84 5.76 7.363-1.926 16.734-.266 25.44-2.88 2.404-.722 3.598-3.125 6.24-1.92-1.592 5.128-10.163 3.278-10.56 9.6 3.141 1.561 4.058-2.879 8.16-1.92-2.839 2.12-6.923 2.997-8.16 6.72 2.818-.381 3.621-2.779 6.72-2.88-1.561 2.279-5.212 2.468-5.76 5.76 2.458 1.956 3.256-1.847 5.28-1.92.134 2.854-2.787 2.653-3.36 4.8 5.73 4.433 9.484-3.352 13.92-7.199 2.898-2.515 7.181-3.714 9.6-5.28 1-.648 4.158-2.994 6.72-3.36 5.743-.822 12.326.57 16.801 1.44 4.525.88 11.392 2.034 15.359 4.8 4.509 3.143 7.238 9.472 12.48 12.48 3.778 2.168 7.71 2.891 11.04 5.279 5.868 4.212 9.629 10.887 15.84 12.96 2.804-9.729-7.094-14.952-9.601-22.56-7.2.46-9.67-2.32-12.48-7.22z" fill="none"/><path d="M8.162 182.78a48.025 48.025 0 0 0-2.442-1.149l2.442 1.15zm7.679-21.12c-4.031.651-6.691 6.718-9.6 10.08 5.545.86 6.727-6.68 9.6-10.08zm97.919-41.76c8.8 6.714 12.608-5.535 18.72-10.56 3.319-2.729 7.514-3.495 7.199-7.2-13.62.94-20.39 8.73-25.92 17.76zM115.2 9.501c5.314 3.486 10.802 6.798 15.84 10.56-2.62-5.858-9.84-9.673-15.84-10.56zm-20.158 9.121c5.129.951 8.251 3.908 12.96 5.28-2.21-3.352-9.68-9.076-12.958-5.28zm-26.4 36c.914.206 1.206 1.034 2.4.96 1.102-1.342.264-3.818-1.92-3.36.196 1.156-.877 1.043-.48 2.4zm33.598-12.48c.821-1.822-2.75-2.865-1.92-6.24h-1.44c-1.801 1.056.823 4.241-1.44 5.28-1.77-.79-3.029-2.091-3.36-4.32-6.152 4.213 2.769 8.519 8.16 5.28zm26.88-10.08c-1.163 1.35-1.142 6.336 2.4 5.76-.88-1.835-.7-4.735-2.4-5.76zm-23.04-17.281c5.942.618 8.101 5.02 12.96 6.72-1.654-3.979-7.507-7.829-13.44-9.12-.4 1.357.68 1.244.48 2.4zm-15.838 30.24c-.795-2.085-.808-4.952-2.4-6.24-1.94 2.039-1.43 6.242 2.4 6.24zm-9.12 4.32c-1.024-2.016-2.206-3.874-4.8-4.32-.207 3.913 1.399 5.073 4.8 4.32zm-4.8 2.881c-.168-2.073-1.288-3.193-3.36-3.36.456 1.783 1.114 3.365 3.36 3.36zm8.639-4.801c-.148-2.572-.571-4.869-2.4-5.76-2.53 1.834-1.063 7.362 2.4 5.76z" fill="none"/><path d="M246.72 97.821c-2.124-1.018-3.341-5.158-5.76-4.32 2.717 3.238 5.542 6.049 2.4 10.56-9.891 1.86-20.909 5.264-30.24 9.12-1.249 1.742-4.3 3.867-7.2 2.399.749-1.65 1.127-3.673.96-6.239 3.198-1.606 6.806-5.349 11.04-4.32.342 2.902-2.522 2.597-3.359 4.32 7.911-4.088 19.711-4.289 26.88-9.12-1.934-3.772-6.005-1.59-12-2.4-10.591 3.01-20.089 7.112-28.8 12-2.689-1.331-8.789 1.657-10.561-1.439.395-11.037 9.401-9.162 20.64-10.081 10.238-.836 17.713-5.275 28.801-3.84-.514-1.793 1.191-1.368.96-2.88-13.297-27.823-37.57-44.669-61.92-61.44-.142-3.302-2.842-5.781-1.92-8.64-6.56-5.441-7.806-16.195-17.28-18.72-.22 2.138 1.137 5.168-1.44 6.24-4.894 2.035-9.913-6.405-13.92-6.72-2.871-.226-5.618 2.612-8.64 2.4-6.309-.442-11.785-7.61-16.32-3.36 11.775 3.106 21.737 10.582 26.4 19.2-7.076-6.044-13.932-12.309-22.561-16.8-3.911 3.125-8.856 2.943-12.96 2.4-1.964 3.97-7.179 4.277-11.52 2.4-1.626 1.024 1.041 2.614 0 2.88-1.573-.027-1.834-1.365-3.84-.96-1.608 1.141 1.669 2.76 0 3.84-2.096.336-2.704-.816-4.8-.48-1.546 3.068-4.239 3.622-5.28 6.24-1.755.284-3.79-1.619-3.84.96 3.973 2.907 11.466 2.294 14.4 6.24-5.991-1.208-11.239-3.161-16.8-4.8-.685 2.605 2.225 1.615 1.44 4.32h-3.36c-1.896 4.185-8.528 3.633-9.6 8.64 1.253.187 2.633.247 3.36.96.373 5.479-5.477 7.503-8.64 9.12-16.991 8.686-41.056 17.503-51.84 31.2-2.266 2.877-4.057 7.247-4.32 11.52 5.606-3.835 10.187-11.251 16.32-12.96-3.524 5.514-11.913 10.665-15.84 16.8-3.659 5.716-.376 11.82-.96 19.2 4.987-9.574 13.131-18.549 21.12-23.52C21.073 97.79 5.78 102.458 8.16 116.54c3.207-6.073 7.336-13.782 12.48-16.319-3.643 7.718-10.16 12.56-12.48 21.6 3.283-.882 4.38-6.492 6.72-6.72-.852 4.624-3.92 6.874-3.36 11.04.665 4.94 2.95 7.118 3.84 11.52 3.453 17.078-7.309 19.494-13.897 35.966-.988.611-1.497 3.68-1.462 5.314 0 0 1.564 17.814 5.663 25.65 4.098 7.835 6.937 10.738 9.774 4.934 2.458-5.028 3.735-13.094 6.492-15.352 8.388-.829 18.491-1.543 21.271 6.848 1.902-.315 2.727 1.882 4.151 2.05 3.246 2.908 13.609 22.364 20.048 21.238 5.678-.993 6.099-16.768 6.106-21.131.147.071.287.151.414.243-1.871-8.968-4.782-15.608-10.08-22.561-10.279-13.488-26.529-21.857-19.68-43.68 3.471.271 2.814-3.586 5.28-4.32 1.543 2.27-1.592 3.35-1.44 5.76 1.569.102 1.94-3.463 3.36-1.92-.287 3.168.668 5.092 1.92 6.721 10.036-5.965 8.651-23.35 14.4-33.601 7.696-6.944 21.982-6.756 32.64-9.6.115.685.79.81.96 1.44-4.87 7.81-2.525 18.452 8.16 18.24 8.896 12.005 16.072.235 22.081-6.24 2.96-3.19 7.688-6.878 11.04-8.64 7.334-3.855 18.244 1.576 24.96 3.36 6.762 10.73 21.722 17.288 32.159 25.439 3.073 2.4 4.213 6.959 9.601 5.76 3.269-7.323-1.85-13.131-3.84-18.239 9.458-8.463 23.206-12.635 37.92-15.84 1.2-2.48 2.63-4.73 3.36-7.679zm-239.04-.96c2.812-8.228 9.81-12.27 14.88-18.24 1.183-.063 2.312-.073 2.88.48-6.142 5.699-10.934 12.747-17.76 17.76zm203.04-36.96c.428-.373 1.084-.516 1.921-.48 6.39 5.496 14.111 12.7 19.68 21.12 2.556 3.864 6.758 8.129 4.32 12.96-1.377-1.504-2.877-2.883-2.881-5.76-.266-1.334-1.855-1.344-2.88-1.92-4.765-10.115-11.891-17.869-20.16-24.48v-1.44zm11.04 22.08c1.516.235 1.695-.865 3.36-.48.553.567.543 1.697.48 2.88-2.26.182-4.12-.038-3.84-2.4zm-9.12-10.56c6.531.029 9.576 3.543 9.6 10.08-6.05 3.321-14.62-5.285-9.6-10.08zm-4.32-15.839c-.196 1.156.877 1.043.479 2.4-1.709.11-2.51-.69-2.399-2.4h1.92zm-3.36-.96c-1.813.054-2.581-.939-2.88-2.4.95.812 3.54-.015 2.88 2.4zm1.92 22.56c-.426 7.253-13.23 2.129-14.88 8.16 5.359.358 11.357-.327 16.8 1.92 5.584-2.007 13.657-1.332 18.24 1.92-.37 5.549-12.558 7.942-19.68 8.64-5.788.567-11.026-.879-14.4.48-1.779.717-2.68 2.918-4.319 2.88-5.562-.13-5.518-10.798-6.721-15.36.494-2.066 2.438-2.681 1.92-5.76 3.34-6.801 17.46-10.166 23.04-2.878zm-21.6-27.361c.145 1.265-.665 1.576-1.92 1.44-.14-1.264.67-1.575 1.92-1.44zm4.8 12.96c-3.448.232-7.929-.569-7.68 3.36-.488-.312-.497-1.104-1.44-.96-1.178 1.77 2.763 1.42.48 3.36.807.305 4.312-.792 6.239-.96-.184 1.575-1.403 2.116-1.92 3.36 1.423.508 5.502-2.669 8.16-.96-6.297 3.547-14.153 7.287-15.359 14.88-.77 4.84 3.063 8.417 3.84 13.92-7.2-1.12-7.638-9.002-11.04-13.92-.046-6.146.036-12.781 2.88-17.76 4.01-2.59 10.74-8.595 15.84-4.32zm-12.48-1.92c-2.865.656-4.881 2.16-6.721 3.84-2.23-3.501 5.85-9.338 6.72-3.84zm-7.68 7.681c-.072 1.755-1.667 1.719-2.88 4.32-2.005 4.298-.176 4.46-3.36 7.2-1.699 1.462-1.873 2.321-3.84.48 1.495-3.625 4.867-5.374 5.761-9.6-1.085-1.052-1.126 3.011-3.841 1.92-1.147-1.289.642-2.551.96-3.84-2.158-1.024-3.063 3.326-6.239 2.88-1.188-1.245.467-2.354 0-4.32-2.924.756-4.578 2.783-6.721 4.32-1.752-.007-2.155-1.364-3.359-1.92-.357-1.478 1.317-.922.96-2.4-1.176-1.453-3.124.364-4.8 0-.503-2.743 2.376-2.104 2.399-4.32-2.015-2.692-3.913 1.851-6.72 1.44-.534-3.414 2.83-2.93 3.84-4.8-2.892-1.598-5.266 1.444-6.72 2.88-1.351-.09-2.045-.835-1.92-2.4.679-2.041 3.297-2.143 4.319-3.84-2.279-2.016-5.87 2.259-7.2 4.32-1.686-.263-.771-2.784-.48-3.84-2.53-.13-1.964 2.836-3.84 3.36-2.775-.105-3.117-2.644-3.84-4.8.981-.345 1.899-1.505 2.88-.48-.45-3.592 1.495-7.005 3.84-6.24.072 1.192-.248 1.992-.96 2.4.332 1.589 1.648 2.192 2.88 2.88 1.96-1.062-.431-5.66 3.84-5.28-.024 2.104-.336 4.496 1.44 4.8 1.735-1.625 1.896-4.824 5.279-4.8 1.105.935-.92 3.091.48 4.32 2.052-.349 2.104-2.695 3.36-3.84h3.84c.42 3.14-1.466 3.975-1.44 6.72 3.199-.161 1.562-5.158 5.28-4.8.134 2.054-1.466 2.374-.96 4.8 3.866-.614 3.928-5.032 8.16-5.28 1.561 5.849-4.289 10.057-2.4 16.32 3.83.037.449-4.277 1.44-7.2 2.999-.361 1.833-4.887 4.319-5.76 2.229 1.055-.548 3.706.48 4.8 3.428-.092 3.596-3.444 6.72-3.84.288 2.237-2.405 5.543-2.399 8.64 0 1.438 1.52 2.889 1.44 4.8zm-12.48 10.08c-.014-.467-.588-.373-.96-.48-.704-2.686 1.549-4.222 3.359-2.88.21 2.132-.27 3.571-2.4 3.36zm-3.84-3.841c-1.545-.18-2.533-2.506-1.439-3.84h1.439c.36 1.045 1.89 3.379 0 3.84zm-52.8-43.679c-1.697.223-1.688 2.152-3.84 1.92 5.293-4.291 19.089-8.741 26.4-4.8-7.33-1.077-16.38 4.408-22.56 2.88zm12.96 7.199c-2.296-.529-1.357-3.954-.48-5.28h1.44c.39.863.16 4.418-.96 5.28zm-8.64-4.32c1.113-.153 1.843.077 2.4.48.086 2.326-.633 3.847-.96 5.76-3.07-.482-1.22-3.547-1.44-6.24zm12.96-.96c2.13-.05 1.667 2.493 3.36 2.88 1.039-.561-.064-3.265 1.44-3.36 2.274-.034.916 3.564 3.36 3.36-.625 4.172-9.179 2.679-9.6-.48.43-.848 1.16-1.401 1.44-2.4zm19.2 4.8c-4.808 1.742-5.23-5.905-1.44-7.2.16 2.364-.71 5.032 1.44 7.2zm4.32-2.88c2.654-.547 3.05-3.351 5.761-3.84-.961 2.08-1.811 4.269-1.92 7.2-3.654 1.114-4.582-.71-7.2-1.92-.348-3.387.661-5.418 3.359-5.76.72.774-.41 2.407 0 4.32zm11.52 4.32c-.796.804-2.818.382-4.32.48-2.439-3.257.404-7.344 3.841-7.68-1.23 3.195-.42 4.142.48 7.2zm2.4 5.76v1.44c-1.004.203-1.271-.329-1.921-.48.12-.844.83-1.094 1.92-.96zm0-7.68c2.611-2.786 4.797 2.577 2.88 4.32-1.93-.47-3.46-1.334-2.88-4.32zm16.8-12c-3.37-3.696-6.738-9.867-8.16-13.92 3.91 3.451 6.55 8.168 8.16 13.92zm-10.56 2.4c-2.153-6.647-9.204-12.554-13.439-18.72.387-.333 1.314-.747 1.439 0 7.09 4.92 11.725 14.823 15.841 21.12-8.765-4.256-21.559-.621-30.721-1.92-1.221-.173-2.818-.231-3.359-1.92 9.43-.583 19.62-1.823 30.24 1.44zm-32.64 4.321c1.694 1.025 1.514 3.926 2.4 5.76-3.54.576-3.56-4.411-2.4-5.76zm1.92-12c-5.038-3.762-10.526-7.074-15.84-10.56 6 .886 13.22 4.701 15.84 10.56zm-25.44-7.681c5.933 1.292 11.786 5.142 13.44 9.12-4.859-1.701-7.018-6.102-12.96-6.72.2-1.156-.88-1.043-.48-2.4zm2.4 11.52c-4.708-1.372-7.831-4.329-12.96-5.28 3.28-3.795 10.75 1.929 12.96 5.28zm-13.918 12.96c.331 2.229 1.59 3.53 3.36 4.32 2.263-1.04-.361-4.225 1.44-5.28h1.44c-.83 3.375 2.741 4.418 1.92 6.24-5.391 3.24-14.312-1.066-8.158-5.28zm-6.241 1.92c1.593 1.288 1.605 4.155 2.4 6.24-3.829.002-4.339-4.201-2.4-6.24zm-5.279 2.881c1.829.891 2.252 3.188 2.4 5.76-3.464 1.601-4.931-3.927-2.4-5.76zm-6.24 3.359c2.594.446 3.776 2.304 4.8 4.32-3.401.753-5.007-.407-4.8-4.32zm0 7.201c-2.246.005-2.904-1.577-3.36-3.36 2.072.167 3.192 1.287 3.36 3.36zm-7.2 0c2.184-.458 3.022 2.018 1.92 3.36-1.194.074-1.486-.754-2.4-.96-.397-1.357.676-1.244.48-2.4zm-4.801 2.88c1.896.024 2.856.984 2.88 2.88-1.86 1.706-4.586-1.02-2.88-2.88zm-2.88 2.399c1.927.056 3.037 2.734 1.92 4.32-2.583.295-2.55-2.765-1.92-4.32zm-3.359 3.84c2.316-.646 3.294 3.275 1.44 3.84-1.558-.168-2.165-2.875-1.44-3.84zm-5.761 5.281c1.811.109 2.59 1.25 2.4 3.36-.861-.061-1.013.587-1.92.48-.786-1.163-1.222-2.332-.48-3.84zm-.96 6.719c-1.751-.426-2.557.848-3.36 0 .254-2.014-.838-2.681-.96-4.32 2.362.519 2.834 2.927 4.32 4.32zm-35.52 88.319c-2.873 3.398-4.055 10.942-9.6 10.08 2.909-3.36 5.569-9.43 9.6-10.08zm116.64-52.32c-6.112 5.024-9.92 17.273-18.72 10.56 5.53-9.029 12.293-16.827 25.919-17.76.32 3.71-3.88 4.47-7.2 7.2zm74.88 27.36c-6.211-2.073-9.972-8.748-15.84-12.96-3.33-2.389-7.262-3.111-11.04-5.279-5.242-3.009-7.972-9.338-12.48-12.48-3.968-2.766-10.834-3.92-15.359-4.8-4.475-.87-11.058-2.262-16.801-1.44-2.562.366-5.719 2.712-6.72 3.36-2.419 1.566-6.702 2.765-9.6 5.28-4.436 3.848-8.19 11.632-13.92 7.199.573-2.146 3.494-1.945 3.36-4.8-2.023.073-2.822 3.876-5.28 1.92.548-3.292 4.199-3.48 5.76-5.76-3.099.101-3.901 2.499-6.72 2.88 1.237-3.723 5.32-4.6 8.16-6.72-4.102-.959-5.019 3.48-8.16 1.92.397-6.322 8.968-4.472 10.56-9.6-2.642-1.205-3.836 1.198-6.24 1.92-8.706 2.614-18.077.954-25.44 2.88-1.549-1.651-4.374-2.026-3.84-5.76-3.73.604-.973 4.767-.48 6.72-4.327 2.713-9.987 4.093-12.48 8.64.106 1.546-.849 2.031-.48 3.84-5.723 7.288-1.744 21.854-10.56 25.44-.255-2.975.229-5.21.96-7.2-2.185-.629-1.78-1.988-2.88-2.88-.238 1.073-2.677 2.4-3.36 1.44 1.128-3.992 4.189-6.051 5.76-9.601-.894-.459-1.604 1.438-1.92 0 .815-4.945 6.212-5.308 6.72-10.56-11.81 8-22.068 22.066-18.24 41.76.973 5.004 4.765 9.953 7.2 14.4 2.635 4.811 6.915 7.013 10.08 10.56 6.192 6.938 11.374 17.842 13.44 25.92.58 2.229-.73 11.106-.881 12.99s-1.507 2.185-1.582-.151c-.062-1.947-1.33-11.639-1.749-14.81.013-1.358-.812-3.043-1.067-3.789-2.115-6.166-7.988-11.84-11.04-15.84h-1.44c4.432 6.052 9.65 13.529 11.371 20.966.002.046 0 .091.007.138.226 1.507.603 8.514.603 8.514l-.603-.075c-.603-.075-4.37-8.891-4.37-8.891l-.058.013c-3.481-6.363-6.446-13.243-12.231-17.305 1.188 5.173 10.265 11.345 8.16 18.24 0 0-.542 2.366-.844 2.291s-1.556-2.771-1.556-2.771c-3.991-6.409-5.81-14.991-11.52-19.681 1.261 7.716 7.886 12.572 7.68 20.16l-.48.483-1.028-.915c.024-.018.045-.028.069-.048-5.828-4.564-6.308-20.78-12.96-24.48 1.657 5.386 5.84 10.797 5.76 16.32-4.812-2.709-3.128-11.912-8.64-13.92.893 4.228 3.492 6.747 3.84 11.52-.717.478-3.655.101-4.32-.96-.124-2.116-.767-3.713-.48-6.24-2.858.022-1.36 4.4-2.4 6.24-1.676.435-3.831.391-5.633.698-.105-.065-.178-.106-.178-.106s-6.306 1.45-7.251 4.643-.946 3.192-.946 3.192-.947 4.353-2.208 6.094c-1.261 1.741-1.261 4.643-4.099-.87-2.837-5.514-3.185-8.825-3.185-12.018s1.899-9.793 1.899-9.793-.791-.406 0 0c.615-1.663.71-3.733 1.44-5.279 3.604-7.642 9.198-12.724 15.36-15.841.914-5.894 1.951-12.264.96-18.72.354-1.086 1.83-1.051 1.92-2.4-1.145-.615-2.601-.919-2.88-2.399.837-1.964 3.558.77 4.32-1.44-.866-1.054-3.467-.373-3.36-2.399.64-.8 2.135-.746 2.88-1.44.111-2.03-2.752-1.087-1.92-3.84 1.612-.147 4.161.641 3.84-1.44-1.19-1.271-2.986.848-3.36-1.439-.198-2.118.13-3.71.96-4.8 2.393 1.685 4.478 1.512 8.64 1.92-2.004-2.374-8.521-2.6-6.72-7.2 3.396.284 3.432 3.929 7.68 3.36-2.509-2.291-5.492-4.108-6.24-8.16 4.863-2.646 4.544 6.197 9.12 3.84-1.753-2.195-6.104-3.767-3.36-7.68-.695-1.225-2.625-1.216-1.92-3.84 1.321-1.329 2.005.431 3.36.48-.079-2.202-1.752-3.75 0-5.28 1.909-.148 2.411 1.109 4.32.96.85-1.54-3.78-3.483-.96-5.76 1.642.438 2.974 1.186 4.8 1.44.032 3.648 1.989 5.371 5.28 5.76-2.556-3.715-7.337-7.66-7.2-12.48 2.198.202 3.082 1.718 5.28 1.92-.432-1.85-2.716-4.604-.48-6.24 1.64.441 2.034 2.126 4.32 1.92 1.396-2.732-1.315-5.625 1.44-7.2 1.349.589 2.666 3.709 4.8 1.92-.932-1.41-2.26-4.421-.48-5.76 1.371 1.029 2.419 2.381 5.28 1.92 1.282-1.656-1.194-5.683.48-7.68 2.302 1.058 2.515 4.205 6.24 3.84.662-3.194-3.471-5.721-.48-8.16 2.472.408 1.841 3.918 5.28 3.36-.063-2.326-2.897-4.826-.48-6.72.831 1.889 2.334 3.105 4.8 3.36 1.657-2.214-1.821-6.842 1.92-7.2.498 2.222 1.735 3.705 4.32 3.84 1.371-1.877-2.184-4.51-.48-6.72 1.648.897 3.399 3.76 5.28 2.88-.129-1.868-2.564-3.473-.48-4.8 2.294.426 1.619 3.82 4.32 3.84 1.966-.941-1.261-5.384 1.92-5.76 1.781 1.1.348 5.413 3.84 4.8.453-2.538 1.479-6.689 3.84-5.76-.754 2.848 1.489 5.391.48 9.12 4.374-.086.667 5.306 4.32 6.24-.292-2.511-1.438-4.21-.48-6.72-1.255.135-2.064-.175-1.92-1.44 2.16-2.379-.395-6.704 3.36-7.68 1.35 3.274 1.941 5.216 1.44 9.6.291.829 2.277-.037 2.4.96.298 1.782-.78 4.94.96 5.28 2.378-1.612-.121-4.241 1.44-7.68-1.431-.129-2.923 1.343-3.36-.48.998-3.443-.237-6.859 2.88-8.64 1 .76.162 3.358.96 4.32 2.654-.554 2.246-6.704 6.24-4.32-3.355 3.251-5.165 8.928-.96 12.48 9.952 2.509 16.896 6.677 24.479 12.48 6.93 5.302 12.081 10.219 15.36 16.32-6.75-3.971-10.835-10.605-17.76-14.4 3.668 6.731 11.866 8.934 14.88 16.32-7.706-1.179-18.988-8.268-27.84-4.32 11.994 1.171 23.179 3.789 33.12 9.12.071-1.418-1.396-3.388.479-3.84 5.624 8.296 10.469 19.93 20.64 22.08-3.852-4.867-11.979-9.98-15.359-17.28-1.428-3.083-4.045-10.258-1.44-12 2.527 3.865 3.061 9.023 5.76 12.48 2.633 3.371 7.291 4.617 9.601 8.64 2.812 4.898 5.279 7.683 12.479 7.2 2.51 7.63 12.41 12.85 9.6 22.58zm-1.92-18.24c-2.687.703-4.222-1.549-2.88-3.36 2.42-.33 3.17 1 2.88 3.36z"/></svg>